<?xml version="1.0" standalone="no"?>
<!DOCTYPE svg PUBLIC "-//W3C//DTD SVG 20010904//EN"
 "http://www.w3.org/TR/2001/REC-SVG-20010904/DTD/svg10.dtd">
<svg version="1.0" xmlns="http://www.w3.org/2000/svg"
 width="1254.000000pt" height="1254.000000pt" viewBox="0 0 1254.000000 1254.000000"
 preserveAspectRatio="xMidYMid meet">
      <rect width="100%" height="100%" fill="#ffffff" />
<g transform="translate(0.000000,1254.000000) scale(0.100000,-0.100000)"
fill="#000000" stroke="none">
<path d="M 0 6270 l 0 -6270 l 6270 0 l 6270 0 l 0 6270 l 0 6270 l -6270 0 l -6270 0 l 0 -6270 z m 6195 4131 l 30 -14 l -58 -18 c -31 -10 -97 -23 -145 -29 c -499 -62 -682 -100 -1012 -210 c -802 -267 -1473 -767 -1987 -1480 c -411 -569 -686 -1319 -744 -2027 l -12 -148 l -45 -42 c -25 -24 -49 -43 -55 -43 c -20 0 9 358 49 600 c 112 676 416 1352 862 1912 c 136 171 469 504 642 642 c 601 479 1307 774 2070 865 c 112 14 369 8 405 -8 z m 666 -41 c 684 -67 1314 -335 1914 -813 c 142 -114 453 -428 579 -587 c 122 -153 306 -425 390 -576 c 31 -56 56 -105 56 -108 c 0 -7 -48 -8 -75 0 c -13 3 -40 40 -72 97 c -120 216 -302 465 -501 687 c -557 623 -1331 1068 -2167 1249 c -77 17 -169 37 -205 44 c -80 18 -54 20 81 7 z m 121 -622 c -17 -17 -47 9 -30 29 c 10 12 13 12 27 -1 c 11 -12 12 -19 3 -28 z m -715 -112 c -8 -20 -43 -21 -51 -1 c -3 8 2 22 11 30 c 14 15 18 15 31 1 c 8 -8 12 -22 9 -30 z m -916 -105 c -15 -27 -47 -27 -62 1 c -10 18 -8 24 11 40 c 23 19 24 19 43 0 c 16 -16 17 -23 8 -41 z m 2262 -94 c 13 -31 23 -38 68 -51 c 29 -9 62 -16 73 -17 c 12 0 -7 -8 -42 -18 c -34 -10 -71 -26 -81 -35 c -19 -18 -41 -78 -41 -117 c -1 -36 -16 -4 -25 50 c -10 61 -40 87 -115 103 l -61 12 l 58 13 c 76 18 100 35 112 80 c 5 21 12 52 17 68 l 7 30 l 8 -41 c 4 -22 14 -57 22 -77 z m -1108 -97 c 0 -22 -29 -18 -33 3 c -3 14 1 18 15 15 c 10 -2 18 -10 18 -18 z m 1964 -213 c 15 -19 -10 -53 -33 -44 c -16 6 -22 38 -9 50 c 10 11 30 8 42 -6 z m -3731 -83 c 2 -11 -4 -27 -13 -34 c -14 -11 -19 -10 -37 8 c -18 18 -19 23 -8 37 c 18 22 54 15 58 -11 z m -528 -199 c 0 -32 22 -86 42 -103 c 9 -7 44 -19 79 -26 l 63 -13 l -61 -12 c -79 -15 -99 -33 -117 -101 c -14 -57 -17 -55 -36 16 c -13 52 -26 63 -103 84 l -62 17 l 45 7 c 85 13 130 60 130 139 c 0 9 5 17 10 17 c 6 0 10 -11 10 -25 z m 2285 -60 c 375 -78 696 -317 868 -644 c 112 -212 150 -364 150 -601 c 1 -144 -3 -179 -26 -278 c -65 -280 -217 -526 -435 -704 c -242 -198 -546 -299 -861 -285 c -294 13 -556 119 -781 318 c -197 173 -342 420 -401 684 c -18 83 -22 130 -22 270 c 0 158 2 178 31 286 c 61 229 167 422 322 583 c 210 220 454 343 775 390 c 63 9 303 -3 380 -19 z m 2123 -282 c -2 -10 -10 -18 -18 -18 c -8 0 -16 8 -18 18 c -2 12 3 17 18 17 c 15 0 20 -5 18 -17 z m -601 -19 c 8 -21 -13 -42 -28 -27 c -13 13 -5 43 11 43 c 6 0 13 -7 17 -16 z m -4190 -138 c -4 -9 -11 -16 -17 -16 c -17 0 -24 31 -9 41 c 18 11 34 -5 26 -25 z m 5948 -206 c 243 -26 432 -70 561 -130 c 137 -63 194 -131 194 -229 c 0 -73 -38 -141 -129 -232 c -115 -114 -287 -228 -546 -363 l -130 -68 l -3 -40 c -4 -53 -22 -87 -71 -131 c -65 -59 -160 -63 -235 -10 l -41 29 l -135 -54 c -252 -101 -549 -203 -820 -281 c -228 -65 -692 -172 -738 -170 c -21 1 -24 0 263 89 c 322 100 631 202 825 272 c 184 66 541 207 553 218 c 5 4 10 35 11 69 c 7 170 193 248 325 134 l 43 -36 l 102 50 c 220 110 437 253 539 357 c 136 138 130 234 -20 313 c -277 147 -943 198 -1738 133 c -307 -25 -580 -51 -668 -65 c -15 -3 -26 -1 -23 4 c 3 5 27 12 53 15 c 27 4 93 16 148 26 c 235 44 636 91 931 110 c 170 10 613 5 749 -10 z m -6463 -286 c 7 -8 34 -20 58 -27 l 45 -14 l -42 -7 c -51 -9 -80 -42 -89 -98 l -7 -39 l -18 52 c -20 61 -38 77 -93 86 l -40 6 l 49 15 c 65 18 71 24 86 83 l 13 50 l 12 -47 c 6 -25 18 -52 26 -60 z m 6052 -69 c 3 -9 -1 -18 -10 -22 c -19 -7 -28 2 -21 22 c 8 19 23 19 31 0 z m -5661 -197 c 7 -21 -4 -38 -23 -38 c -23 0 -34 16 -26 35 c 7 18 43 20 49 3 z m 5021 -5 c 4 -9 0 -23 -9 -32 c -13 -14 -17 -14 -31 1 c -9 9 -14 24 -11 32 c 8 21 43 20 51 -1 z m -4404 -272 c -786 -271 -1355 -549 -1780 -869 c -236 -177 -380 -353 -355 -433 c 23 -73 243 -144 567 -184 c 495 -60 1181 -39 2122 66 c 148 16 271 27 274 24 c 3 -3 0 -5 -5 -5 c -6 0 -119 -16 -250 -35 c -362 -53 -365 -53 -563 -75 c -886 -96 -1555 -91 -1955 15 c -120 31 -175 56 -224 100 c -79 72 -76 162 9 282 c 242 344 1049 800 1880 1063 c 157 50 486 138 515 139 c 11 0 -95 -40 -235 -88 z m 3938 -204 c 4 -20 -25 -34 -40 -19 c -15 15 -1 44 19 40 c 10 -2 19 -11 21 -21 z m 1975 -154 c 65 -302 82 -456 73 -688 c -22 -612 -188 -1269 -452 -1798 c -226 -451 -564 -887 -957 -1234 c -535 -472 -1196 -792 -1879 -909 c -159 -27 -208 -27 -86 1 c 101 22 254 67 406 119 c 738 251 1369 665 1860 1221 c 563 639 891 1359 1002 2205 c 39 290 36 788 -6 1158 c -11 97 11 53 39 -75 z m -6046 -49 c 9 -23 -11 -38 -26 -20 c -13 16 -7 36 10 36 c 5 0 12 -7 16 -16 z m 398 -239 c 0 -30 -39 -27 -43 3 c -3 20 0 23 20 20 c 15 -2 23 -10 23 -23 z m -1097 -212 c 5 -17 -26 -29 -40 -15 c -6 6 -7 15 -3 22 c 9 14 37 9 43 -7 z m 5662 -63 c 0 -11 -7 -20 -15 -20 c -8 0 -15 9 -15 20 c 0 11 7 20 15 20 c 8 0 15 -9 15 -20 z m -5048 -35 c 14 -32 -5 -57 -41 -53 c -18 2 -27 10 -29 26 c -7 50 49 72 70 27 z m 4506 -197 c 34 -34 -6 -90 -48 -68 c -35 19 -20 80 20 80 c 9 0 21 -5 28 -12 z m -500 -281 c 2 -10 -3 -17 -12 -17 c -18 0 -29 16 -21 31 c 9 14 29 6 33 -14 z m -5782 -308 c 17 -6 27 -34 58 -156 c 122 -480 306 -895 578 -1301 c 288 -430 658 -802 1088 -1094 c 568 -386 1182 -615 1861 -693 c 126 -14 319 -54 319 -66 c 0 -22 -282 -25 -465 -4 c -884 99 -1757 535 -2405 1201 c -527 542 -899 1204 -1070 1904 c -17 69 -33 149 -37 178 l -6 53 l 29 -7 c 16 -4 38 -10 50 -15 z m 1092 -297 c 57 -41 67 -72 67 -207 c 0 -141 -13 -174 -84 -212 c -41 -21 -55 -23 -218 -23 l -173 0 l 0 236 l 0 235 l 188 -3 c 177 -3 189 -4 220 -26 z m 464 -142 c 33 -91 63 -168 67 -173 c 4 -4 36 71 72 165 c 52 141 68 173 83 173 c 19 0 25 -12 132 -303 c 9 -24 18 -41 20 -39 c 2 2 31 77 64 168 c 33 90 64 167 69 172 c 5 5 24 7 44 5 l 35 -3 l -82 -221 c -46 -121 -86 -226 -90 -232 c -10 -16 -71 -15 -83 1 c -6 6 -27 62 -47 122 c -20 61 -43 124 -50 140 l -14 30 l -9 -25 c -6 -14 -29 -74 -51 -135 c -22 -60 -44 -118 -47 -128 c -6 -14 -17 -17 -47 -15 l -40 3 l -84 225 c -46 124 -84 229 -84 233 c 0 5 19 7 41 5 l 42 -3 l 59 -165 z m 1127 73 c 27 -54 81 -159 120 -233 c 39 -73 71 -135 71 -137 c 0 -2 -19 -3 -42 -3 c -42 0 -44 1 -73 58 l -30 57 l -112 5 l -112 5 l 20 33 c 20 31 23 32 90 32 c 38 0 69 2 69 5 c 0 9 -90 185 -94 185 c -3 0 -49 -85 -102 -190 l -98 -190 l -43 0 c -24 0 -43 1 -43 3 c 0 2 27 55 61 118 c 33 62 88 167 120 232 l 59 117 l 45 0 l 45 0 l 49 -97 z m 861 84 c 13 -7 35 -28 48 -47 c 20 -30 23 -44 20 -97 c -3 -52 -9 -68 -32 -92 c -16 -17 -42 -33 -57 -36 c -16 -4 -29 -9 -29 -12 c 0 -4 26 -38 58 -77 c 82 -100 81 -96 25 -96 c -47 0 -50 2 -88 52 c -22 29 -55 70 -74 90 c -33 38 -34 38 -112 38 l -79 0 l 0 -90 l 0 -90 l -40 0 l -40 0 l 0 235 l 0 235 l 188 0 c 129 0 195 -4 212 -13 z m 848 -24 l -3 -38 l -164 -3 c -101 -1 -170 -7 -178 -13 c -7 -7 -13 -32 -13 -60 l 0 -49 l 125 0 l 125 0 l 0 -35 l 0 -35 l -125 0 l -125 0 l 0 -100 l 0 -100 l -41 0 l -40 0 l 3 206 l 3 206 l 33 29 l 32 29 l 186 0 l 185 0 l -3 -37 z m 724 32 c 3 -3 2 -20 -1 -38 l -7 -32 l -164 -3 c -141 -2 -167 -5 -177 -19 c -19 -25 -16 -60 8 -84 c 17 -17 28 -20 56 -14 c 20 3 81 3 137 -1 c 96 -7 102 -8 133 -39 c 30 -30 33 -39 33 -93 c 0 -45 -5 -66 -21 -86 c -40 -51 -63 -56 -254 -56 l -175 0 l 0 40 l 0 40 l 173 0 c 121 0 177 4 185 12 c 16 16 15 85 0 95 c -7 4 -77 10 -155 13 l -143 5 l -31 32 c -26 26 -33 42 -37 85 c -3 44 0 59 20 88 c 38 56 55 60 244 60 c 94 0 173 -2 176 -5 z m 746 -32 l -3 -38 l -97 -3 l -98 -3 l -2 -192 l -3 -192 l -37 -3 l -38 -3 l 0 195 l 0 196 l -100 0 c -98 0 -100 0 -106 25 c -14 55 -15 55 246 55 l 241 0 l -3 -37 z m 602 -186 c 63 -122 116 -227 118 -234 c 2 -9 -9 -13 -37 -13 c -39 0 -41 2 -72 60 l -32 60 l -109 0 l -110 0 l 21 33 c 19 30 24 32 89 37 l 70 5 l -48 94 l -47 95 l -45 -85 c -25 -46 -71 -132 -102 -191 l -57 -108 l -40 0 c -21 0 -39 5 -39 10 c 0 9 47 99 197 378 l 44 82 l 42 0 l 42 -1 l 115 -222 z m 786 181 c 31 -35 34 -43 34 -100 c 0 -82 -23 -122 -80 -139 c -22 -7 -40 -14 -40 -16 c 0 -2 29 -38 65 -80 c 36 -42 65 -80 65 -85 c 0 -4 -20 -8 -44 -8 c -44 0 -45 1 -116 90 l -72 90 l -78 0 l -79 0 l -3 -87 l -3 -88 l -37 -3 l -38 -3 l 0 236 l 0 236 l 196 -3 l 196 -3 l 34 -37 z z"/>
<path d="M3090 5055 l0 -155 129 0 c123 0 131 1 158 24 27 24 28 27 28 129 0
98 -2 107 -24 131 -24 25 -27 26 -158 26 l-133 0 0 -155z"/>
<path d="M5550 5140 l0 -70 135 0 c122 0 137 2 155 20 24 24 27 82 4 104 -12
13 -41 16 -155 16 l-139 0 0 -70z"/>
<path d="M6841 2924 c0 -11 3 -14 6 -6 3 7 2 16 -1 19 -3 4 -6 -2 -5 -13z"/>
<path d="M6606 2897 c-9 -34 -7 -100 4 -117 9 -13 10 -13 10 0 0 8 7 28 15 44
16 30 12 60 -10 83 -10 10 -14 8 -19 -10z"/>
<path d="M6665 2742 c-14 -15 -28 -35 -31 -44 -3 -10 -10 -18 -15 -18 -6 0 -7
-4 -4 -10 3 -5 41 -10 83 -10 42 0 73 4 67 8 -5 4 -17 27 -25 51 -18 53 -41
60 -75 23z"/>
<path d="M6611 2744 c0 -11 3 -14 6 -6 3 7 2 16 -1 19 -3 4 -6 -2 -5 -13z"/>
<path d="M6814 2728 c-4 -5 -12 -7 -20 -4 -20 8 -17 -8 6 -29 11 -10 17 -22
      14 -27 -4 -6 2 -8 12 -6 25 4 34 75 9 75 -9 0 -18 -4 -21 -9z"/>
</g>
</svg>
