<?xml version="1.0" encoding="UTF-8"?>
<svg xmlns="http://www.w3.org/2000/svg" width="960" height="540" viewBox="0 0 960 540">
<style>
text { font-family: -apple-system, BlinkMacSystemFont, 'Segoe UI', sans-serif; }
.title { font-size: 26px; font-weight: 700; fill: #1f2933; }
.axis-label { font-size: 14px; font-weight: 600; fill: #334155; }
.tick { font-size: 12px; fill: #64748b; }
.legend { font-size: 13px; font-weight: 600; fill: #1f2933; }
</style>
<rect width="960" height="540" fill="#ffffff"/>
<text class="title" x="480.0" y="34" text-anchor="middle">M5 Max 40 Gpu High Power t/s</text>
<line x1="82" y1="468.00" x2="878" y2="468.00" stroke="#e2e8f0" stroke-width="1"/>
<text class="tick" x="70" y="472.00" text-anchor="end">0</text>
<line x1="82" y1="367.50" x2="878" y2="367.50" stroke="#e2e8f0" stroke-width="1"/>
<text class="tick" x="70" y="371.50" text-anchor="end">100</text>
<line x1="82" y1="267.00" x2="878" y2="267.00" stroke="#e2e8f0" stroke-width="1"/>
<text class="tick" x="70" y="271.00" text-anchor="end">200</text>
<line x1="82" y1="166.50" x2="878" y2="166.50" stroke="#e2e8f0" stroke-width="1"/>
<text class="tick" x="70" y="170.50" text-anchor="end">300</text>
<line x1="82" y1="66.00" x2="878" y2="66.00" stroke="#e2e8f0" stroke-width="1"/>
<text class="tick" x="70" y="70.00" text-anchor="end">400</text>
<text class="tick" x="890" y="472.00" text-anchor="start">0</text>
<text class="tick" x="890" y="371.50" text-anchor="start">10</text>
<text class="tick" x="890" y="271.00" text-anchor="start">20</text>
<text class="tick" x="890" y="170.50" text-anchor="start">30</text>
<text class="tick" x="890" y="70.00" text-anchor="start">40</text>
<line x1="82.00" y1="66" x2="82.00" y2="468" stroke="#e2e8f0" stroke-width="1"/>
<text class="tick" x="82.00" y="492" text-anchor="middle">0</text>
<line x1="324.92" y1="66" x2="324.92" y2="468" stroke="#e2e8f0" stroke-width="1"/>
<text class="tick" x="324.92" y="492" text-anchor="middle">20k</text>
<line x1="567.84" y1="66" x2="567.84" y2="468" stroke="#e2e8f0" stroke-width="1"/>
<text class="tick" x="567.84" y="492" text-anchor="middle">40k</text>
<line x1="810.76" y1="66" x2="810.76" y2="468" stroke="#e2e8f0" stroke-width="1"/>
<text class="tick" x="810.76" y="492" text-anchor="middle">60k</text>
<line x1="82" y1="66" x2="82" y2="468" stroke="#334155" stroke-width="1.4"/>
<line x1="878" y1="66" x2="878" y2="468" stroke="#334155" stroke-width="1.4"/>
<line x1="82" y1="468" x2="878" y2="468" stroke="#334155" stroke-width="1.4"/>
<text class="axis-label" x="480.0" y="520" text-anchor="middle">ctx size</text>
<text class="axis-label" x="22" y="267.0" text-anchor="middle" transform="rotate(-90 22 267.0)">prefill t/s</text>
<text class="axis-label" x="938" y="267.0" text-anchor="middle" transform="rotate(90 938 267.0)">generation t/s</text>
<polyline fill="none" stroke="#2563eb" stroke-width="3" stroke-linecap="round" stroke-linejoin="round" points="106.88,93.99 131.75,128.89 156.62,132.57 181.50,135.66 206.38,144.03 231.25,155.50 256.12,156.40 281.00,154.21 305.88,157.78 330.75,160.05 355.62,163.71 380.50,165.61 405.38,170.96 430.25,173.82 455.12,176.81 480.00,178.89 504.88,184.16 529.75,186.23 554.62,189.25 579.50,190.96 604.38,195.44 629.25,198.04 654.12,200.87 679.00,202.79 703.88,206.27 728.75,208.08 753.62,211.03 778.50,212.60 803.38,216.44 828.25,218.20 853.12,220.80 878.00,222.05"/>
<polyline fill="none" stroke="#dc2626" stroke-width="3" stroke-linecap="round" stroke-linejoin="round" points="106.88,151.63 131.75,155.44 156.62,158.76 181.50,158.56 206.38,161.88 231.25,161.98 256.12,164.99 281.00,165.90 305.88,169.62 330.75,168.11 355.62,171.02 380.50,171.02 405.38,174.54 430.25,173.84 455.12,176.95 480.00,177.25 504.88,179.87 529.75,180.37 554.62,181.88 579.50,181.78 604.38,184.39 629.25,184.49 654.12,186.80 679.00,186.10 703.88,188.51 728.75,188.31 753.62,192.03 778.50,191.12 803.38,193.53 828.25,193.33 853.12,195.85 878.00,196.95"/>
<rect x="694" y="66" width="176" height="62" rx="6" fill="#ffffff" stroke="#cbd5e1"/>
<rect x="708" y="78" width="12" height="12" fill="#2563eb"/>
<text class="legend" x="730" y="89">prefill</text>
<rect x="708" y="104" width="12" height="12" fill="#dc2626"/>
<text class="legend" x="730" y="115">generation</text>
</svg>
