<?xml version="1.0" encoding="UTF-8"?>
<svg xmlns="http://www.w3.org/2000/svg" width="960" height="540" viewBox="0 0 960 540">
<style>
text { font-family: -apple-system, BlinkMacSystemFont, 'Segoe UI', sans-serif; }
.title { font-size: 26px; font-weight: 700; fill: #1f2933; }
.axis-label { font-size: 14px; font-weight: 600; fill: #334155; }
.tick { font-size: 12px; fill: #64748b; }
.legend { font-size: 13px; font-weight: 600; fill: #1f2933; }
</style>
<rect width="960" height="540" fill="#ffffff"/>
<text class="title" x="480.0" y="34" text-anchor="middle">MacBook Pro M4 Max t/s</text>
<line x1="82" y1="468.00" x2="878" y2="468.00" stroke="#e2e8f0" stroke-width="1"/>
<text class="tick" x="70" y="472.00" text-anchor="end">0</text>
<line x1="82" y1="367.50" x2="878" y2="367.50" stroke="#e2e8f0" stroke-width="1"/>
<text class="tick" x="70" y="371.50" text-anchor="end">50</text>
<line x1="82" y1="267.00" x2="878" y2="267.00" stroke="#e2e8f0" stroke-width="1"/>
<text class="tick" x="70" y="271.00" text-anchor="end">100</text>
<line x1="82" y1="166.50" x2="878" y2="166.50" stroke="#e2e8f0" stroke-width="1"/>
<text class="tick" x="70" y="170.50" text-anchor="end">150</text>
<line x1="82" y1="66.00" x2="878" y2="66.00" stroke="#e2e8f0" stroke-width="1"/>
<text class="tick" x="70" y="70.00" text-anchor="end">200</text>
<text class="tick" x="890" y="472.00" text-anchor="start">0</text>
<text class="tick" x="890" y="371.50" text-anchor="start">5</text>
<text class="tick" x="890" y="271.00" text-anchor="start">10</text>
<text class="tick" x="890" y="170.50" text-anchor="start">15</text>
<text class="tick" x="890" y="70.00" text-anchor="start">20</text>
<line x1="82.00" y1="66" x2="82.00" y2="468" stroke="#e2e8f0" stroke-width="1"/>
<text class="tick" x="82.00" y="492" text-anchor="middle">0</text>
<line x1="324.92" y1="66" x2="324.92" y2="468" stroke="#e2e8f0" stroke-width="1"/>
<text class="tick" x="324.92" y="492" text-anchor="middle">20k</text>
<line x1="567.84" y1="66" x2="567.84" y2="468" stroke="#e2e8f0" stroke-width="1"/>
<text class="tick" x="567.84" y="492" text-anchor="middle">40k</text>
<line x1="810.76" y1="66" x2="810.76" y2="468" stroke="#e2e8f0" stroke-width="1"/>
<text class="tick" x="810.76" y="492" text-anchor="middle">60k</text>
<line x1="82" y1="66" x2="82" y2="468" stroke="#334155" stroke-width="1.4"/>
<line x1="878" y1="66" x2="878" y2="468" stroke="#334155" stroke-width="1.4"/>
<line x1="82" y1="468" x2="878" y2="468" stroke="#334155" stroke-width="1.4"/>
<text class="axis-label" x="480.0" y="520" text-anchor="middle">ctx size</text>
<text class="axis-label" x="22" y="267.0" text-anchor="middle" transform="rotate(-90 22 267.0)">prefill t/s</text>
<text class="axis-label" x="938" y="267.0" text-anchor="middle" transform="rotate(90 938 267.0)">generation t/s</text>
<polyline fill="none" stroke="#2563eb" stroke-width="3" stroke-linecap="round" stroke-linejoin="round" points="106.88,231.06 131.75,203.77 156.62,145.23 181.50,215.75 206.38,194.32 231.25,198.42 256.12,212.45 281.00,176.93 305.88,216.57 330.75,247.72 355.62,254.42 380.50,244.47 405.38,206.04 430.25,201.03 455.12,213.43 480.00,199.34 504.88,238.14 529.75,227.46 554.62,219.08 579.50,234.66 604.38,233.55 629.25,248.11 654.12,239.28 679.00,268.67 703.88,267.16 728.75,261.71 753.62,266.66 778.50,263.54 803.38,262.68 828.25,234.76 853.12,244.75 878.00,247.60"/>
<polyline fill="none" stroke="#dc2626" stroke-width="3" stroke-linecap="round" stroke-linejoin="round" points="106.88,171.93 131.75,147.61 156.62,159.87 181.50,175.54 206.38,195.64 231.25,182.78 256.12,187.81 281.00,185.59 305.88,203.69 330.75,207.30 355.62,224.99 380.50,211.93 405.38,169.92 430.25,187.81 455.12,177.56 480.00,171.12 504.88,193.63 529.75,191.02 554.62,211.73 579.50,209.72 604.38,196.25 629.25,204.49 654.12,201.88 679.00,218.96 703.88,217.35 728.75,218.96 753.62,227.40 778.50,210.32 803.38,208.51 828.25,207.10 853.12,200.67 878.00,235.44"/>
<rect x="694" y="66" width="176" height="62" rx="6" fill="#ffffff" stroke="#cbd5e1"/>
<rect x="708" y="78" width="12" height="12" fill="#2563eb"/>
<text class="legend" x="730" y="89">prefill</text>
<rect x="708" y="104" width="12" height="12" fill="#dc2626"/>
<text class="legend" x="730" y="115">generation</text>
</svg>
